<?xml version="1.0" encoding="UTF-8" standalone="no"?>
<!-- Created with Inkscape (http://www.inkscape.org/) -->

<svg
   xmlns:dc="http://purl.org/dc/elements/1.1/"
   xmlns:cc="http://creativecommons.org/ns#"
   xmlns:rdf="http://www.w3.org/1999/02/22-rdf-syntax-ns#"
   xmlns:svg="http://www.w3.org/2000/svg"
   xmlns="http://www.w3.org/2000/svg"
   xmlns:sodipodi="http://sodipodi.sourceforge.net/DTD/sodipodi-0.dtd"
   xmlns:inkscape="http://www.inkscape.org/namespaces/inkscape"
   width="32"
   height="32"
   viewBox="0 0 8.4666665 8.4666669"
   version="1.1"
   id="svg8"
   inkscape:version="0.92.2 2405546, 2018-03-11"
   sodipodi:docname="keepassx_01.svg">
  <defs
     id="defs2" />
  <sodipodi:namedview
     id="base"
     pagecolor="#ffffff"
     bordercolor="#666666"
     borderopacity="1.0"
     inkscape:pageopacity="0.0"
     inkscape:pageshadow="2"
     inkscape:zoom="22.4"
     inkscape:cx="15.969185"
     inkscape:cy="14.987628"
     inkscape:document-units="px"
     inkscape:current-layer="layer1"
     showgrid="true"
     units="px"
     inkscape:showpageshadow="false"
     inkscape:window-width="1920"
     inkscape:window-height="1024"
     inkscape:window-x="0"
     inkscape:window-y="34"
     inkscape:window-maximized="1">
    <inkscape:grid
       type="xygrid"
       id="grid815" />
  </sodipodi:namedview>
  <metadata
     id="metadata5">
    <rdf:RDF>
      <cc:Work
         rdf:about="">
        <dc:format>image/svg+xml</dc:format>
        <dc:type
           rdf:resource="http://purl.org/dc/dcmitype/StillImage" />
        <dc:title></dc:title>
      </cc:Work>
    </rdf:RDF>
  </metadata>
  <g
     inkscape:label="Layer 1"
     inkscape:groupmode="layer"
     id="layer1"
     transform="translate(0,-288.53332)">
    <path
       style="fill:none;fill-rule:evenodd;stroke:#949494;stroke-width:0.5291667;stroke-linecap:butt;stroke-linejoin:miter;stroke-miterlimit:4;stroke-dasharray:none;stroke-opacity:1"
       d="m 2.9104168,293.82498 v -1.85208 c 0,-1.32292 1.0583332,-1.32292 1.3229166,-1.32292 0.2645833,0 1.3229166,0 1.3229166,1.32292 v 1.85208"
       id="path4136"
       inkscape:connector-curvature="0"
       sodipodi:nodetypes="csssc" />
    <path
       style="opacity:1;fill:#949494;fill-opacity:1;stroke:none;stroke-width:0.5291667;stroke-linecap:round;stroke-linejoin:miter;stroke-miterlimit:4;stroke-dasharray:none;stroke-opacity:1"
       d="m 2.6458334,292.50207 -0.5291667,0.26458 v 0.26458 0.26459 0.26458 c 0,1.17263 0.5291667,1.5875 2.1166667,1.5875 1.5875,0 2.1166666,-0.41487 2.1166666,-1.5875 v -0.26458 -0.26459 -0.26458 l -0.5291666,-0.26458 h -1.5875 z m 1.5875,0.52916 c 0.2931583,0 0.5291666,0.23601 0.5291666,0.52917 0,0.19608 -0.1069448,0.36486 -0.2645833,0.4563 v 0.33745 c 0,0.14658 -0.1180041,0.26458 -0.2645833,0.26458 -0.1465792,0 -0.2645834,-0.118 -0.2645834,-0.26458 v -0.33745 c -0.1576384,-0.0914 -0.2645833,-0.26022 -0.2645833,-0.4563 0,-0.29316 0.2360083,-0.52917 0.5291667,-0.52917 z"
       id="rect4134-2"
       inkscape:connector-curvature="0"
       sodipodi:nodetypes="ccccsssccccccsscssscss" />
  </g>
</svg>
