<?xml version="1.0" encoding="UTF-8" standalone="no"?>
<!-- Created with Inkscape (http://www.inkscape.org/) -->

<svg
   xmlns:dc="http://purl.org/dc/elements/1.1/"
   xmlns:cc="http://creativecommons.org/ns#"
   xmlns:rdf="http://www.w3.org/1999/02/22-rdf-syntax-ns#"
   xmlns:svg="http://www.w3.org/2000/svg"
   xmlns="http://www.w3.org/2000/svg"
   xmlns:sodipodi="http://sodipodi.sourceforge.net/DTD/sodipodi-0.dtd"
   xmlns:inkscape="http://www.inkscape.org/namespaces/inkscape"
   width="32"
   height="32"
   viewBox="0 0 8.4666665 8.4666669"
   version="1.1"
   id="svg8"
   inkscape:version="0.92.2 2405546, 2018-03-11"
   sodipodi:docname="transmission_15.svg">
  <defs
     id="defs2" />
  <sodipodi:namedview
     id="base"
     pagecolor="#ffffff"
     bordercolor="#666666"
     borderopacity="1.0"
     inkscape:pageopacity="0.0"
     inkscape:pageshadow="2"
     inkscape:zoom="22.4"
     inkscape:cx="8.2682921"
     inkscape:cy="14.987628"
     inkscape:document-units="px"
     inkscape:current-layer="layer1"
     showgrid="true"
     units="px"
     inkscape:showpageshadow="false"
     inkscape:window-width="1920"
     inkscape:window-height="1024"
     inkscape:window-x="0"
     inkscape:window-y="34"
     inkscape:window-maximized="1">
    <inkscape:grid
       type="xygrid"
       id="grid815" />
  </sodipodi:namedview>
  <metadata
     id="metadata5">
    <rdf:RDF>
      <cc:Work
         rdf:about="">
        <dc:format>image/svg+xml</dc:format>
        <dc:type
           rdf:resource="http://purl.org/dc/dcmitype/StillImage" />
        <dc:title></dc:title>
      </cc:Work>
    </rdf:RDF>
  </metadata>
  <g
     inkscape:label="Layer 1"
     inkscape:groupmode="layer"
     id="layer1"
     transform="translate(0,-288.53332)">
    <path
       style="fill:#949494;fill-opacity:1;stroke:none;stroke-width:1.02244723;stroke-miterlimit:4;stroke-dasharray:none;stroke-opacity:1"
       d="m 3.4395834,290.3854 -0.7937501,0.26458 -0.5291667,0.52917 -0.2645833,0.79375 v 0.79375 0.79375 l 0.2645833,0.79375 0.5291667,0.52917 0.7937501,0.26458 h 0.79375 0.79375 l 0.79375,-0.26458 0.5291667,-0.52917 0.2645833,-0.79375 v -0.79375 -0.79375 l -0.2645833,-0.79375 -0.5291667,-0.52917 -0.79375,-0.26458 h -0.79375 z m -1.0583334,1.5875 0.2645834,-0.26458 0.5291667,-0.26459 0.79375,-0.26458 h 0.5291666 l 0.79375,0.26458 0.5291667,0.26457 0.2645833,0.26458 v 0.2646 l -0.2645833,0.26458 -0.2645833,1e-5 -0.79375,-0.26459 H 4.4979167 v 0.26459 1.5875 0.26458 H 3.9687501 v -0.26458 -1.5875 -0.26459 H 3.7041668 l -0.7937502,0.26459 -0.2645833,10e-6 -0.2645834,-0.26458 z"
       id="rect837"
       inkscape:connector-curvature="0"
       sodipodi:nodetypes="cccccccccccccccccccccccccccccccccccccccccccccc" />
  </g>
</svg>
