<?xml version="1.0" encoding="UTF-8" standalone="no"?>
<!-- Created with Inkscape (http://www.inkscape.org/) -->

<svg
   xmlns:dc="http://purl.org/dc/elements/1.1/"
   xmlns:cc="http://creativecommons.org/ns#"
   xmlns:rdf="http://www.w3.org/1999/02/22-rdf-syntax-ns#"
   xmlns:svg="http://www.w3.org/2000/svg"
   xmlns="http://www.w3.org/2000/svg"
   xmlns:sodipodi="http://sodipodi.sourceforge.net/DTD/sodipodi-0.dtd"
   xmlns:inkscape="http://www.inkscape.org/namespaces/inkscape"
   width="32"
   height="32"
   viewBox="0 0 8.4666665 8.4666669"
   version="1.1"
   id="svg8"
   inkscape:version="0.92.2 2405546, 2018-03-11"
   sodipodi:docname="transmission_08.svg">
  <defs
     id="defs2" />
  <sodipodi:namedview
     id="base"
     pagecolor="#ffffff"
     bordercolor="#666666"
     borderopacity="1.0"
     inkscape:pageopacity="0.0"
     inkscape:pageshadow="2"
     inkscape:zoom="22.4"
     inkscape:cx="8.2682921"
     inkscape:cy="14.987628"
     inkscape:document-units="px"
     inkscape:current-layer="layer1"
     showgrid="true"
     units="px"
     inkscape:showpageshadow="false"
     inkscape:window-width="1920"
     inkscape:window-height="1024"
     inkscape:window-x="0"
     inkscape:window-y="34"
     inkscape:window-maximized="1">
    <inkscape:grid
       type="xygrid"
       id="grid815" />
  </sodipodi:namedview>
  <metadata
     id="metadata5">
    <rdf:RDF>
      <cc:Work
         rdf:about="">
        <dc:format>image/svg+xml</dc:format>
        <dc:type
           rdf:resource="http://purl.org/dc/dcmitype/StillImage" />
        <dc:title></dc:title>
      </cc:Work>
    </rdf:RDF>
  </metadata>
  <g
     inkscape:label="Layer 1"
     inkscape:groupmode="layer"
     id="layer1"
     transform="translate(0,-288.53332)">
    <path
       style="fill:#949494;fill-opacity:1;stroke:none;stroke-width:1.02244723;stroke-miterlimit:4;stroke-dasharray:none;stroke-opacity:1"
       d="m 3.4395834,290.3854 -0.79375,0.26458 -0.5291666,0.52917 -0.2645834,0.79375 v 0.79375 0.79375 l 0.2645834,0.79375 0.5291666,0.52917 0.79375,0.26458 h 0.79375 0.79375 l 0.79375,-0.26458 0.5291667,-0.52917 0.2645833,-0.79375 v -0.79375 -0.79375 l -0.2645833,-0.79375 -0.5291667,-0.52917 -0.79375,-0.26458 h -0.79375 z m 0,0.52917 h 1.5875 l 0.5291667,0.26458 0.2645833,0.26458 0.2645833,0.52917 v 1.5875 l -0.2645833,0.52917 -0.2645833,0.26458 -0.5291667,0.26458 h -1.5875 L 2.9104167,294.35415 2.6458334,294.08957 2.3812501,293.5604 v -1.5875 l 0.2645833,-0.52917 0.2645833,-0.26458 z"
       id="rect837"
       inkscape:connector-curvature="0"
       sodipodi:nodetypes="cccccccccccccccccccccccccccccccccccccc" />
    <path
       style="fill:#949494;fill-opacity:1;stroke:none;stroke-width:1.0583334;stroke-miterlimit:4;stroke-dasharray:none;stroke-opacity:1"
       d="m 2.9104167,291.70834 0.5291667,-1e-5 v 0.79375 h 0.5291667 v -1.05834 h 0.5291666 v 1.05834 h 0.5291667 l -3e-7,-0.79376 0.529167,10e-6 v 2.11666 H 5.0270834 v -0.79375 H 4.4979167 v 1.05834 H 3.9687501 v -1.05834 H 3.4395834 3.1750001 l -0.2645834,-0.26458 z"
       id="rect833"
       inkscape:connector-curvature="0"
       sodipodi:nodetypes="ccccccccccccccccccccc" />
  </g>
</svg>
