<?xml version="1.0" encoding="UTF-8" standalone="no"?>
<!-- Created with Inkscape (http://www.inkscape.org/) -->

<svg
   xmlns:dc="http://purl.org/dc/elements/1.1/"
   xmlns:cc="http://creativecommons.org/ns#"
   xmlns:rdf="http://www.w3.org/1999/02/22-rdf-syntax-ns#"
   xmlns:svg="http://www.w3.org/2000/svg"
   xmlns="http://www.w3.org/2000/svg"
   xmlns:sodipodi="http://sodipodi.sourceforge.net/DTD/sodipodi-0.dtd"
   xmlns:inkscape="http://www.inkscape.org/namespaces/inkscape"
   width="24"
   height="24"
   viewBox="0 0 6.3499999 6.3500002"
   version="1.1"
   id="svg8"
   inkscape:version="0.92.2 2405546, 2018-03-11"
   sodipodi:docname="deadbeef_01.svg">
  <defs
     id="defs2" />
  <sodipodi:namedview
     id="base"
     pagecolor="#ffffff"
     bordercolor="#666666"
     borderopacity="1.0"
     inkscape:pageopacity="0.0"
     inkscape:pageshadow="2"
     inkscape:zoom="22.4"
     inkscape:cx="-1.9102796"
     inkscape:cy="12.130485"
     inkscape:document-units="px"
     inkscape:current-layer="layer1"
     showgrid="true"
     units="px"
     inkscape:showpageshadow="false"
     inkscape:window-width="1920"
     inkscape:window-height="1024"
     inkscape:window-x="0"
     inkscape:window-y="34"
     inkscape:window-maximized="1">
    <inkscape:grid
       type="xygrid"
       id="grid815" />
  </sodipodi:namedview>
  <metadata
     id="metadata5">
    <rdf:RDF>
      <cc:Work
         rdf:about="">
        <dc:format>image/svg+xml</dc:format>
        <dc:type
           rdf:resource="http://purl.org/dc/dcmitype/StillImage" />
        <dc:title></dc:title>
      </cc:Work>
    </rdf:RDF>
  </metadata>
  <g
     inkscape:label="Layer 1"
     inkscape:groupmode="layer"
     id="layer1"
     transform="translate(0,-290.64999)">
    <path
       style="fill:#949494;fill-opacity:1;stroke:none;stroke-width:0.26458335"
       d="m 3.5491775,291.39284 c 0.28728,0.1832 0.817409,0.55456 1.1604043,0.89757 0.3429952,0.34301 0.7143755,0.87313 0.8975709,1.16041 0.1831954,0.28728 0.1831972,0.46106 0,0.74835 -0.1831973,0.28728 -0.5545757,0.8174 -0.8975709,1.16041 -0.3429953,0.343 -0.8731261,0.71437 -1.1604043,0.89757 -0.2872785,0.1832 -0.4610728,0.1832 -0.7483547,0 -0.2872822,-0.1832 -0.817413,-0.55457 -1.1604082,-0.89757 -0.3429953,-0.34301 -0.71437377,-0.87313 -0.89756725,-1.16041 -0.1831935,-0.28729 -0.18319162,-0.46107 0,-0.74835 0.1831916,-0.28728 0.55457195,-0.8174 0.89756725,-1.16041 0.3429952,-0.34301 0.8731242,-0.71437 1.1604082,-0.89757 0.2872838,-0.1832 0.4610743,-0.1832 0.7483547,0 z"
       id="rect3923"
       inkscape:connector-curvature="0"
       sodipodi:nodetypes="zzzzzzzzzzzzz" />
    <path
       style="fill:#333333;stroke:none;stroke-width:0.26458335"
       d="m 2.38125,292.23749 1.3229167,0.79375 -1.3229167,0.79375 z"
       id="path3047"
       inkscape:connector-curvature="0"
       sodipodi:nodetypes="cccc" />
    <path
       style="fill:#333333;stroke:none;stroke-width:0.26458335"
       d="m 2.38125,292.23749 2.6458333,1.5875 -2.6458333,1.5875 v -0.79375 L 3.7041667,293.82499 2.38125,293.03124 Z"
       id="path3049"
       inkscape:connector-curvature="0"
       sodipodi:nodetypes="ccccccc" />
  </g>
</svg>
