<?xml version="1.0" encoding="UTF-8" standalone="no"?>
<!-- Created with Inkscape (http://www.inkscape.org/) -->

<svg
   xmlns:dc="http://purl.org/dc/elements/1.1/"
   xmlns:cc="http://creativecommons.org/ns#"
   xmlns:rdf="http://www.w3.org/1999/02/22-rdf-syntax-ns#"
   xmlns:svg="http://www.w3.org/2000/svg"
   xmlns="http://www.w3.org/2000/svg"
   xmlns:sodipodi="http://sodipodi.sourceforge.net/DTD/sodipodi-0.dtd"
   xmlns:inkscape="http://www.inkscape.org/namespaces/inkscape"
   width="24"
   height="24"
   viewBox="0 0 6.3499999 6.3500002"
   version="1.1"
   id="svg8"
   inkscape:version="0.92.2 2405546, 2018-03-11"
   sodipodi:docname="transmission_08.svg">
  <defs
     id="defs2" />
  <sodipodi:namedview
     id="base"
     pagecolor="#ffffff"
     bordercolor="#666666"
     borderopacity="1.0"
     inkscape:pageopacity="0.0"
     inkscape:pageshadow="2"
     inkscape:zoom="22.4"
     inkscape:cx="4.8754341"
     inkscape:cy="12.442986"
     inkscape:document-units="px"
     inkscape:current-layer="layer1"
     showgrid="true"
     units="px"
     inkscape:showpageshadow="false"
     inkscape:window-width="1920"
     inkscape:window-height="1024"
     inkscape:window-x="0"
     inkscape:window-y="34"
     inkscape:window-maximized="1">
    <inkscape:grid
       type="xygrid"
       id="grid815" />
  </sodipodi:namedview>
  <metadata
     id="metadata5">
    <rdf:RDF>
      <cc:Work
         rdf:about="">
        <dc:format>image/svg+xml</dc:format>
        <dc:type
           rdf:resource="http://purl.org/dc/dcmitype/StillImage" />
        <dc:title></dc:title>
      </cc:Work>
    </rdf:RDF>
  </metadata>
  <g
     inkscape:label="Layer 1"
     inkscape:groupmode="layer"
     id="layer1"
     transform="translate(0,-290.64999)">
    <path
       style="fill:#949494;fill-opacity:1;stroke:none;stroke-width:3.86436749;stroke-miterlimit:4;stroke-dasharray:none;stroke-opacity:1"
       d="M 9,3 6,4 4,6 3,9 v 3 3 l 1,3 2,2 3,1 h 3 3 l 3,-1 2,-2 1,-3 V 12 9 L 20,6 18,4 15,3 h -3 z m 0,2 h 6 l 2,0.9999999 1,1 L 19,9 v 6 l -1,2 -1,1 -2,1 H 9 l -2.0000001,-1 -1,-1 L 5,15 V 9 l 0.9999999,-2.0000001 1,-1 z"
       transform="matrix(0.26458334,0,0,0.26458334,0,290.64999)"
       id="rect837"
       inkscape:connector-curvature="0"
       sodipodi:nodetypes="cccccccccccccccccccccccccccccccccccccc" />
    <path
       style="fill:#949494;fill-opacity:1;stroke:none;stroke-width:1.0583334;stroke-miterlimit:4;stroke-dasharray:none;stroke-opacity:1"
       d="m 1.8520833,292.76667 0.5291667,-10e-6 0,0.79375 h 0.5291667 v -1.05834 h 0.5291667 v 1.05834 H 3.96875 l -10e-8,-0.79376 0.5291668,10e-6 10e-8,2.11666 H 3.96875 l 0,-0.79375 H 3.4395834 v 1.05834 H 2.9104167 v -1.05834 H 2.38125 2.1166667 l -0.2645834,-0.26458 z"
       id="rect833"
       inkscape:connector-curvature="0"
       sodipodi:nodetypes="ccccccccccccccccccccc" />
  </g>
</svg>
